<svg width="310" height="45" viewBox="0 0 310 45" fill="none" xmlns="http://www.w3.org/2000/svg">
<path d="M0.5 9.15L5.65 4H25.4L28.9 7.5V3.5H31.15V17H28.9V10.6L24.3 6H12V42H25.45L29.95 37.5L31.5 39.05L26.55 44H5.65L0.5 38.85V9.15ZM65.1863 19.15V38.85L60.0363 44H41.6363L36.4863 38.85V19.15L41.6363 14H60.0363L65.1863 19.15ZM48.4863 16V42H53.1863V16H48.4863ZM105.228 42V44H94.3777L90.8777 40.45L87.3277 44H74.8277L70.1777 39.35V18.65L74.8277 14H87.0277L89.7277 16.7V2H85.7277V-2.74181e-06H96.5777L101.228 4.65V42H105.228ZM89.7277 38.5V19.8L85.9277 16H81.9277V42H86.2277L89.7277 38.5ZM112.865 44L108.215 39.35V18.65L112.865 14H132.065L136.715 18.65V26.85L132.065 31.5H119.715V42H131.215L135.415 37.8L136.965 39.35L132.315 44H112.865ZM119.715 16V29.5H125.215V16H119.715ZM141.223 32H143.473V37.4L148.073 42H164.173L141.723 15.55V8.65L146.373 4H166.023L169.523 7.5V3.5H171.773V16H169.523V10.6L164.923 6H150.323L172.773 32.45V39.35L168.123 44H146.973L143.473 40.5V44.5H141.223V32ZM182.445 44L177.795 39.35V18.65L182.445 14H201.645L206.295 18.65V26.85L201.645 31.5H189.295V42H200.795L204.995 37.8L206.545 39.35L201.895 44H182.445ZM189.295 16V29.5H194.795V16H189.295ZM226.803 42V44H216.453L211.803 39.35V2H208.303V-2.74181e-06H218.653L223.303 4.65V42H226.803ZM246.285 42V44H235.935L231.285 39.35V2H227.785V-2.74181e-06H238.135L242.785 4.65V42H246.285ZM254.418 44L249.768 39.35V18.65L254.418 14H273.618L278.268 18.65V26.85L273.618 31.5H261.268V42H272.768L276.968 37.8L278.518 39.35L273.868 44H254.418ZM261.268 16V29.5H266.768V16H261.268ZM309.275 17.65L307.725 19.2L304.525 16H300.275L296.775 19.5V42H300.775V44H289.925L285.275 39.35V16H281.275V14H292.125L295.675 17.5L299.175 14H305.625L309.275 17.65Z" fill="#F0F0F0"/>
</svg>
